# xmcd
#
# Track frame offsets: 
#        150
#        37879
#        77337
#        103736
#        137641
#        183827
#        224361
#
# Disc length: 3742 seconds
#
# Revision: 1
# Processed by: cddbd v1.5.2PL0 Copyright (c) Steve Scherf et al.
# Submitted via: ExactAudioCopy v1.2
#
DISCID=520e9c07
DTITLE=Branford Marsalis Quartet - The Secret Between the Shadow and t
DTITLE=he Soul
DYEAR=2019
DGENRE=Jazz
TTITLE0=Dance of the Evil Toys
TTITLE1=Conversation Among the Ruins
TTITLE2=Snake Hip Waltz
TTITLE3=Cianna
TTITLE4=Nilaste
TTITLE5=Life Filtering From The Water Flowers
TTITLE6=The Windup
EXTD=YEAR: 2019
EXTT0=
EXTT1=
EXTT2=
EXTT3=
EXTT4=
EXTT5=
EXTT6=
PLAYORDER=
